<svg width="318.501" height="72.401" viewBox="0 0 318.501 72.401" xmlns="http://www.w3.org/2000/svg"><g id="svgGroup" stroke-linecap="round" fill-rule="evenodd" font-size="9pt" stroke="#ffffff" stroke-width="0.25mm" fill="#ffffff" style="stroke:#ffffff;stroke-width:0.25mm;fill:#ffffff"><path d="M 229.8 5.7 L 226.3 13.6 Q 222.1 11.3 217.75 9.8 A 27.36 27.36 0 0 0 211.651 8.48 A 34.225 34.225 0 0 0 208.1 8.3 A 20.13 20.13 0 0 0 200.613 9.671 A 18.919 18.919 0 0 0 196.9 11.65 A 20.295 20.295 0 0 0 191.576 17.068 A 27.457 27.457 0 0 0 189.15 21.5 A 31.614 31.614 0 0 0 187.104 28.231 Q 186.501 31.363 186.35 34.955 A 58.311 58.311 0 0 0 186.3 37.4 Q 186.3 44.709 188.268 50.163 A 26.036 26.036 0 0 0 188.9 51.75 A 24.18 24.18 0 0 0 191.832 56.797 A 19.102 19.102 0 0 0 196.1 60.9 A 17.93 17.93 0 0 0 205.909 64.086 A 21.993 21.993 0 0 0 206.7 64.1 A 22.762 22.762 0 0 0 212.297 63.437 A 18.835 18.835 0 0 0 216.65 61.75 A 40.361 40.361 0 0 0 219.652 59.967 Q 221.938 58.463 223.5 56.9 L 223.5 41.6 L 209 41.6 L 209 34.1 L 232.5 34.1 L 232.5 71.2 L 224.1 71.2 L 224.1 64.2 A 35.883 35.883 0 0 1 219.722 67.492 A 47.354 47.354 0 0 1 215.6 69.85 A 23.594 23.594 0 0 1 206.194 72.35 A 28.131 28.131 0 0 1 204.5 72.4 A 26.572 26.572 0 0 1 195.187 70.801 A 24.511 24.511 0 0 1 190.1 68.2 Q 183.8 64 180.2 56.25 A 37.529 37.529 0 0 1 177.292 46.68 A 51.837 51.837 0 0 1 176.6 38 A 56.301 56.301 0 0 1 177.435 28.083 A 42.572 42.572 0 0 1 180.4 18.25 A 32.73 32.73 0 0 1 186.184 9.303 A 29.455 29.455 0 0 1 191.35 4.85 Q 198.5 0 208.6 0 Q 215.1 0 220.2 1.6 Q 225.3 3.2 229.8 5.7 Z M 318.4 71.2 L 277.8 71.2 Q 277.5 69.4 277.5 67.5 A 32.192 32.192 0 0 1 278.135 60.975 A 25.813 25.813 0 0 1 279.75 55.85 Q 282 50.7 285.6 46.45 Q 289.2 42.2 293.25 38.55 Q 297.3 34.9 300.85 31.55 A 46.218 46.218 0 0 0 304.269 27.977 A 35.601 35.601 0 0 0 306.7 24.8 Q 309 21.4 309 17.7 A 9.278 9.278 0 0 0 308.176 13.755 A 9.139 9.139 0 0 0 305.9 10.75 A 10.723 10.723 0 0 0 300.582 8.23 A 15.011 15.011 0 0 0 297.9 8 A 18.533 18.533 0 0 0 292.943 8.645 A 16.281 16.281 0 0 0 290.25 9.65 A 25.364 25.364 0 0 0 284.462 13.502 A 28.825 28.825 0 0 0 283.8 14.1 L 278.8 8 Q 282.8 4.4 287.65 2.2 A 24.132 24.132 0 0 1 293.956 0.363 A 32.297 32.297 0 0 1 298.9 0 A 26.13 26.13 0 0 1 304.102 0.495 A 19.778 19.778 0 0 1 309.2 2.25 A 17.784 17.784 0 0 1 314.086 5.862 A 16.365 16.365 0 0 1 316.05 8.4 Q 318.5 12.3 318.5 17.1 Q 318.5 21.9 316.4 26 A 34.778 34.778 0 0 1 311.408 33.248 A 38.693 38.693 0 0 1 311 33.7 Q 307.7 37.3 303.9 40.65 Q 300.1 44 296.6 47.5 A 45.932 45.932 0 0 0 292.026 52.803 A 40.289 40.289 0 0 0 290.65 54.8 Q 288.2 58.6 287.6 63 L 318.4 63 L 318.4 71.2 Z M 31 71.2 L 21.5 71.2 L 21.5 9.6 L 0 9.6 L 0 1.2 L 52.5 1.2 L 52.5 9.6 L 31 9.6 L 31 71.2 Z M 102 71.2 L 92.5 71.2 L 92.5 1.4 Q 96.6 0.9 101.55 0.65 A 200.806 200.806 0 0 1 110.48 0.404 A 221.966 221.966 0 0 1 111.8 0.4 Q 119.37 0.4 124.972 2.482 A 26.011 26.011 0 0 1 126.6 3.15 A 24.606 24.606 0 0 1 131.682 6.179 A 19.374 19.374 0 0 1 135.9 10.7 Q 139.1 15.5 139.1 21.7 A 25.258 25.258 0 0 1 138.392 27.823 A 19.268 19.268 0 0 1 135.4 34.4 A 22.312 22.312 0 0 1 127.849 41.03 A 28.065 28.065 0 0 1 125.1 42.35 A 34.774 34.774 0 0 1 117.011 44.574 A 47.194 47.194 0 0 1 109.8 45.1 Q 105.6 45.1 102 44.8 L 102 71.2 Z M 102 8.8 L 102 36.7 Q 103.1 36.838 104.531 36.952 A 96.255 96.255 0 0 0 105.9 37.05 Q 108.2 37.2 111 37.2 A 31.831 31.831 0 0 0 116.38 36.775 Q 119.259 36.28 121.563 35.211 A 15.221 15.221 0 0 0 124.8 33.2 A 12.896 12.896 0 0 0 129.655 23.758 A 17.32 17.32 0 0 0 129.7 22.5 A 14.452 14.452 0 0 0 128.939 17.707 A 12.136 12.136 0 0 0 125 12.2 A 15.462 15.462 0 0 0 119.919 9.537 Q 117.693 8.827 115 8.56 A 34.58 34.58 0 0 0 111.6 8.4 A 131.125 131.125 0 0 0 108.342 8.439 A 109.939 109.939 0 0 0 106.5 8.5 A 91.274 91.274 0 0 0 103.617 8.664 A 75.041 75.041 0 0 0 102 8.8 Z" vector-effect="non-scaling-stroke"/></g></svg>