<svg width="263.6125061035156px" height="131.20000610351562px" xmlns="http://www.w3.org/2000/svg" viewBox="118.1937469482422 9.39999694824219 263.6125061035156 131.20000610351562" style="background:#051103" preserveAspectRatio="xMidYMid"><defs><linearGradient id="editing-glowing-gradient" x1="0.8146601955249186" x2="0.18533980447508142" y1="0.8885729807284856" y2="0.11142701927151444"><stop offset="0" stop-color="#67ff43"></stop><stop offset="1" stop-color="#90ffff"></stop></linearGradient><filter id="editing-glowing" x="-100%" y="-100%" width="300%" height="300%"><feGaussianBlur in="SourceGraphic" result="blur" stdDeviation="10"></feGaussianBlur><feMerge><feMergeNode in="blur"></feMergeNode><feMergeNode in="SourceGraphic"></feMergeNode></feMerge></filter></defs><g filter="url(#editing-glowing)"><g transform="translate(160.99998712539673, 98.55999755859375)"><path d="M3.19-46.06L38.25-46.06L38.25-40.94L24.50-40.94L24.50 0L16.94 0L16.94-40.94L3.19-40.94L3.19-46.06ZM54.63-16.63L54.63 0L47.13 0L47.13-46.06L60.38-46.06L60.38-46.06Q63.31-46.06 66.19-45.13L66.19-45.13L66.19-45.13Q69.06-44.19 71.34-42.31L71.34-42.31L71.34-42.31Q73.63-40.44 75.03-37.78L75.03-37.78L75.03-37.78Q76.44-35.13 76.44-31.81L76.44-31.81L76.44-31.81Q76.44-28.31 75.25-25.47L75.25-25.47L75.25-25.47Q74.06-22.63 71.94-20.69L71.94-20.69L71.94-20.69Q69.81-18.75 66.81-17.69L66.81-17.69L66.81-17.69Q63.81-16.63 60.19-16.63L60.19-16.63L54.63-16.63ZM60.25-40.38L54.63-40.38L54.63-22.13L61.50-22.13L61.50-22.13Q62.88-22.13 64.22-22.59L64.22-22.59L64.22-22.59Q65.56-23.06 66.69-24.13L66.69-24.13L66.69-24.13Q67.81-25.19 68.50-27.09L68.50-27.09L68.50-27.09Q69.19-29 69.19-31.81L69.19-31.81L69.19-31.81Q69.19-32.94 68.88-34.41L68.88-34.41L68.88-34.41Q68.56-35.88 67.59-37.22L67.59-37.22L67.59-37.22Q66.63-38.56 64.88-39.47L64.88-39.47L64.88-39.47Q63.13-40.38 60.25-40.38L60.25-40.38ZM103.31-23.75L118.56-23.75L118.56-5.94L118.56-5.94Q117.13-4.13 115.34-2.97L115.34-2.97L115.34-2.97Q113.56-1.81 111.59-1.06L111.59-1.06L111.59-1.06Q109.63-0.31 107.53 0L107.53 0L107.53 0Q105.44 0.31 103.38 0.31L103.38 0.31L103.38 0.31Q99.25 0.31 95.78-1.19L95.78-1.19L95.78-1.19Q92.31-2.69 89.72-5.63L89.72-5.63L89.72-5.63Q87.13-8.56 85.66-13L85.66-13L85.66-13Q84.19-17.44 84.19-23.25L84.19-23.25L84.19-23.25Q84.19-29.06 85.66-33.47L85.66-33.47L85.66-33.47Q87.13-37.88 89.72-40.81L89.72-40.81L89.72-40.81Q92.31-43.75 95.81-45.28L95.81-45.28L95.81-45.28Q99.31-46.81 103.38-46.81L103.38-46.81L103.38-46.81Q107.13-46.81 110.38-45.56L110.38-45.56L110.38-45.56Q113.63-44.31 116.19-41.81L116.19-41.81L111-37.19L111-37.19Q109.50-39 107.56-39.81L107.56-39.81L107.56-39.81Q105.63-40.63 103.56-40.63L103.56-40.63L103.56-40.63Q101.25-40.63 99.16-39.75L99.16-39.75L99.16-39.75Q97.06-38.88 95.41-36.78L95.41-36.78L95.41-36.78Q93.75-34.69 92.81-31.38L92.81-31.38L92.81-31.38Q91.88-28.06 91.81-23.25L91.81-23.25L91.81-23.25Q91.88-18.56 92.78-15.13L92.78-15.13L92.78-15.13Q93.69-11.69 95.28-9.50L95.28-9.50L95.28-9.50Q96.88-7.31 98.91-6.25L98.91-6.25L98.91-6.25Q100.94-5.19 103.19-5.19L103.19-5.19L103.19-5.19Q103.88-5.19 105.03-5.28L105.03-5.28L105.03-5.28Q106.19-5.38 107.34-5.59L107.34-5.59L107.34-5.59Q108.50-5.81 109.56-6.19L109.56-6.19L109.56-6.19Q110.63-6.56 111.13-7.25L111.13-7.25L111.13-18.63L103.31-18.63L103.31-23.75ZM174.13-32.38L174.13-32.38L174.13-32.38Q174.13-29.94 173.06-27.34L173.06-27.34L173.06-27.34Q172-24.75 170.25-22.22L170.25-22.22L170.25-22.22Q168.50-19.69 166.41-17.31L166.41-17.31L166.41-17.31Q164.31-14.94 162.22-12.81L162.22-12.81L162.22-12.81Q160.13-10.69 158.28-8.97L158.28-8.97L158.28-8.97Q156.44-7.25 155.25-6.06L155.25-6.06L174.81-6.06L174.81 0L146.19 0L146.19-7L146.19-7Q147.31-8 149.31-9.72L149.31-9.72L149.31-9.72Q151.31-11.44 153.63-13.56L153.63-13.56L153.63-13.56Q155.94-15.69 158.25-18.09L158.25-18.09L158.25-18.09Q160.56-20.50 162.47-22.97L162.47-22.97L162.47-22.97Q164.38-25.44 165.59-27.81L165.59-27.81L165.59-27.81Q166.81-30.19 166.81-32.31L166.81-32.31L166.81-32.31Q166.81-34.50 166.03-35.97L166.03-35.97L166.03-35.97Q165.25-37.44 164.06-38.38L164.06-38.38L164.06-38.38Q162.88-39.31 161.47-39.69L161.47-39.69L161.47-39.69Q160.06-40.06 158.81-40.06L158.81-40.06L158.81-40.06Q156.38-40.06 154.78-39.91L154.78-39.91L154.78-39.91Q153.19-39.75 152-39.47L152-39.47L152-39.47Q150.81-39.19 149.88-38.69L149.88-38.69L149.88-38.69Q148.94-38.19 147.88-37.56L147.88-37.56L145.69-42.19L145.69-42.19Q146.81-43.19 148.47-44L148.47-44L148.47-44Q150.13-44.81 151.91-45.31L151.91-45.31L151.91-45.31Q153.69-45.81 155.44-46.09L155.44-46.09L155.44-46.09Q157.19-46.38 158.69-46.38L158.69-46.38L158.69-46.38Q162.75-46.38 165.66-45.06L165.66-45.06L165.66-45.06Q168.56-43.75 170.44-41.72L170.44-41.72L170.44-41.72Q172.31-39.69 173.22-37.19L173.22-37.19L173.22-37.19Q174.13-34.69 174.13-32.38Z" fill="url(#editing-glowing-gradient)"></path></g></g><style>text {
  font-size: 64px;
  font-family: Arial Black;
  dominant-baseline: central;
  text-anchor: middle;
}</style></svg>